# xmcd
#
# Track frame offsets:
#	150
#	17850
#	35768
#	54348
#	73533
#	93077
#	106581
#	124388
#	138586
#	153695
#	171490
#	187284
#	202208
#	217576
#	232143
#
# Disc length: 3277 seconds
#
# Revision: 1
# Processed by: cddbd v1.5.1PL2 Copyright (c) Steve Scherf et al.
# Submitted via: audiograbber 1.83.01
#
DISCID=e10ccb0f
DTITLE=Various Artist - SIN 6032 Winter and Spring 2006 Country Hits
DYEAR=2006
DGENRE=Country
TTITLE0=Carrie Underwood - Jesus, Take The Wheel
TTITLE1=Trace Adkins - Honky Tonk Badonkadonk
TTITLE2=Sugarland - Just Might (Make Me Believe)
TTITLE3=Keith Urban - Tonight I Wanna Cry
TTITLE4=Faith Hill - Like We Never Loved At All
TTITLE5=Miranda Lambert - Kerosene
TTITLE6=Lee Ann Womack - Twenty Years And Two Husbands Ago
TTITLE7=Jason Aldean - Why
TTITLE8=Kenny Chesney - Living In Fast Forward
TTITLE9=LeAnn Rimes - Something's Gotta Give
TTITLE10=Josh Turner - Your Man
TTITLE11=Montgomery Gentry - She Don't Tell Me To
TTITLE12=Trent Tomlinson - Drunker Than Me
TTITLE13=George Strait - She Let Herself Go
TTITLE14=Gretchen Wilson - I Don't Feel Like Loving You Today
EXTD=
EXTT0=
EXTT1=
EXTT2=
EXTT3=
EXTT4=
EXTT5=
EXTT6=
EXTT7=
EXTT8=
EXTT9=
EXTT10=
EXTT11=
EXTT12=
EXTT13=
EXTT14=
PLAYORDER=
